<svg xmlns="http://www.w3.org/2000/svg" width="864.92" height="1007.16" viewBox="0 0 864.92 1007.16"><g id="line-1"><path d="M218.71.07s9.25,11,13.88,14.57,4.19,7.66,4.19,7.66L238.42,24l2.25.45,1.88,1.87.91,3.22a7.39,7.39,0,0,1,.8,2.82,15.43,15.43,0,0,0-.07,5.23,22.17,22.17,0,0,0,3.67,6.94c1.54,1.63,7.39,5.71,7.69,6.78a10.54,10.54,0,0,0,1.9,3.82,37,37,0,0,1,2.88,5.16,14.83,14.83,0,0,1,.26,3.83c-.2,1.43.19,5,.93,6.16s7.38,6.15,8,7.83,1.61,7,2.17,7.69,3.67,5.81,6.54,7.49,2.11,3.55,2.21,4.56a9.16,9.16,0,0,0,1.56,3.71c.6.66,4.83,2,6.88,2s5.63,3,5.95,4.13a28.08,28.08,0,0,1,.82,6.82c-.08,2.31-.1,18.51,2.55,23.63s13,14,14.64,14.17,3,2.09,3,2.09,1.28,2.31,1.91,2.34,1.43-.61,2.16-.21,2.82,2.1,2.7,2.94-.68,2.29-.5,2.94-.72,4.7-.07,5.72,2,.32,2.91,1.18,2.74,1.53,2.87,2.29a9.77,9.77,0,0,0,.86,3.06c.59,1.13,2.92,10.07,2.28,13.22a6,6,0,0,0,2.31,6.06c.88.43,3,1.85,4,2.33s1.13.61,1.32,1.64-.09,1.88.77,2.62,1.81.36,2.33,1.85,1.4,2.22,2.21,2a2.26,2.26,0,0,1,2.46.83c.52.83,0,1.31.57,2a2.72,2.72,0,0,1,.2,2.77c-.45.45,1.19,2.5,2.17,2.22s3.92.85,4.8,1.91a10.84,10.84,0,0,1,3.19,6.42c.42,3.63-1,7.61-.12,9.23s3,3.23,3.77,3.19,1.52,4.85-.07,6.15-2.41,2.72-2,4.14.12,1.5-.63,1.54-1.09,2-.13,3.27,2.46,3.9,2.12,5.36-8.54,4.82-7.56,7.33,4.81,8.25,4.06,10.94,2.58,7.18,4.34,8.08,21,19.78,19.94,26.09-3.87,10-3.16,12.14,1.33,4.74,2.7,4.35a1.81,1.81,0,0,1,2,.75s1.09.69.94,1.43-.43,3.51.09,3.77-.84,1.73-1.53,1.82-3.44-1.82-3.32-.45-1.43,3.1-1.12,4.51-3.62,6.51-7.05,5.39-5.5,1.8-5.91,3.76-.72,3-2.23,3.38-2.42,1.68-2.24,2-1.29-.89-1.67.14a2.75,2.75,0,0,0,0,2.49c.4.64-.13.87-1.16,1.16s-2.35-1.5-2.87-.19-.92,2.08-.35,3.47,1.76,2,2,3-.82,2-.69,3.08-.72,1.68,0,3,1.67.81,1.61,2.5-.16,2,.93,3.1,4.47,6.58,4.16,12-4.06,9.68-3.12,11.62.4,6.07.74,7.73,1.25,3.48,3.18,3.38a4.05,4.05,0,0,1,4.06,3.26c.57,2.05-3.41,2.29-3.1,3.38s-.64,6.06,1.23,7.6,9.19,1.08,10,3.36,1.13,4.28.32,4.41a2,2,0,0,0-1.26,1.78c0,.46-.08,1.82-.86,2s-.13,2.22-.83,2.7a1.8,1.8,0,0,0-.12,2.59c.74.83,1.6,6.84-.53,7.63s-5.33,3.78-4.76,5.79,1.09,3.29.32,3.51a1.43,1.43,0,0,0-1,1.69c.23.51.81,7.43,2.71,9s3.71-.78,4.64.39.27,2.44,1.34,3,.83,3.79,2.56,3.5,6.11.59,7.09,4,4.27,7.58,6.53,7.61,4.5.46,4.93,1.54,1.32,1.36,2.64,1,1.91-1.6,2.82-1.32,2.86.92,3.28,2.4,2.58,3.26,3.34,3.05,2.11-1,2.56-.72,1.87.11,2.48,1.36,1.42,3.73,2.62,3.69,2.07,1.18,2.62,2.39,2.69-.11,4.09,1.68S431.14,505,433,511.88s2,10.85,5.94,13.55,10,16.2,10.76,18.74,1.5,7.11,1,7.83-1.49,1.91-1.19,3-.7,3.28.47,4.55,1.89,3.81.54,4.42-2.5,2.65-1.69,5.16,1.47.38,2.07.61a5.35,5.35,0,0,1,2.11,1.73c.71.91,1.67,3.68.44,4.12s-.62,3.21.1,3.21a10.18,10.18,0,0,1,2,.35,2.85,2.85,0,0,1,2,1.87c.43,1.5-.75,2.74.38,3.24a2.64,2.64,0,0,1,1.9,2.29c.32,1.43.45,2.2,1.19,2a86.76,86.76,0,0,0,10.21-3.63c4.46-2,5.41-5.34,7.06-3.74s3.39,4,4.92,3.14,4.92-4.09,4.18-5.95,0-2.3.83-1.82.75,2.41,1.66,2.15.31-3.66,1.91-2.76,2.27.55,2.95,1.71-1.25,1.06-.33,2.56,1.74,2.68,2.6,1.72,6.15.43,5.52-1.77-.41-7,1.6-5.22,2.67,0,2.38-1-.23-2.76.83-2.18,3.6,2.06,4.25,1.37,2-.76,2.18-.24.07,2,.53,1.88,1.72-.49,2,.77.87,3.87,1.71,3.44,2.73-1.46,1.94-3.07.9-3,1.39-2,.9,1.2,1.37,2.27-1.26,1.3-.37,2.06,1.1.33,2.23.95,3.78,1.18,3,4-1.77,6.63-.25,6.2,3-2.49,3.72-.33-2.59,1.75-1.55,2.89,3.89-.38,4.62,2.17-3.26,3-2.66,4.74,2.46,10.46,5.07,10,5.34-.48,5.54.2,2.35,2.34.74,2.65-4,1.57-2.52,2.62,1.26,3.8-.74,4.09-2.64,4.49-1,4.49a3.06,3.06,0,0,1,2.95,2.16,4.07,4.07,0,0,1-1.78,3.7c-1.32.86-2.93,1.89-2.57,3.45s-1.18,2.86-.45,3.62a4.71,4.71,0,0,1,1.35,2.64c.43,1.53-1,2.32-.53,3.94s3.24.44,3.49,1.34-1.66.86-1,2-1.81,4,1.07,5.92,4,5.79,2.49,6.39-1.15.82-1.11,1.87-1.11,3.43-.33,5.25,5.44,4.3,5.13,5.65-3,16.42-1.42,23.15,6.36,8.49,7.32,12.48-2,5.62-1.28,8.9,6.42,16.25,13.17,20.65,12,1,13.9,1.13,3.57.82,3.34,1.81-.44,2.76.15,2.71,3.14-2.61,3.85-1.55-.64,3.16.52,3.64,3.32.21,3.62,1.27-.22,1,0,1.8.81,1,.41,2-.46,2.87.15,2.26,2.36-1.47,2.58-.66,1.38,2.12,2.07,1.43,1.09-2.34,1.65-1.73-.14,1.74.79,1.75-.91.92-.45,1.88,1.86,2.77,3,2.12,1.38,0,1.49.46-1,1-.81,1.43,1.18-.11,1.41.7,1.74,1.17.41,3.92-2.66,5.21-1.53,5.93,1.29,2.77,1.24,4.39,1.89,1.93,3.18,2.9-1.44.59-.91,2.15,1.92-.35,2.48,2.81-4.06,1.15-2.81,4.68,2.29,10,.05,12.12-3.78,2.57-3.27,4.38,2.1,1.28,2.33,2.1,1.71-.12,2.47,1.17,2.34,3.26,3,2.35,4.32-1.22,5-.17,2.38,4.91,1.09,7.35-1.61,5.89-.69,6.11,3.18.7,2.87,4.15,2,1.37,4.9,6.77-2.42,4.52-1.66,6.71,4.31,1.66,4.28,3.59,1.48.7,5.14,1.1,2.61-1.85,4.9-3.3,4.46-6.85,1.86-8.52.62-4.33,1.61-3.33.93,5.81,2.21,5.29,3.25,2,1.28,2.52-2.59,3.93-1.14,3.52,2.73,1.63,2.94,2.37,4.56-4,5.58-2.38.41,2.1-.34,2.31-.66.74-.45,1,1.71.56.94,1.34-.27,2.8.54,2.58,4.5,2.33,4.32,5.94,1,8.66,1.76,8.94,3.08.48,3.41,3.21,2.62,2,3,2.84-.08.88,1.08,1.9,1.71-2.08,2.73-.77,4.19,2.13,4.81,6.24-3.11,4.81-2.6,6.62,2.89,2.5,2.49,5-1.28,2.81.15,3.63,5.39,4,4.59,9.19-12.9,11.69-12.42,19.61,5.84,23.36,3.93,30.82S656,972.51,655.45,978.73s3.5,7.49,4.22,11.39-2.24,3.17-1.36,6.31-1.14,4.57,2,5.66" transform="translate(-217.95 0.57)" fill="none" stroke="#cfeae6" stroke-miterlimit="10" stroke-width="2"/></g><g id="line-3"><path d="M383.64,328.09a27.7,27.7,0,0,0,5.41,6.62c3.43,3,10.65,4.19,11.83,8.39s7,12.68,7.82,12.45.39,4.43,1.67,5.93,7.86-.35,8.56,2.12-2.14,4.6-1.93,5.34-.92,3.44,2.23,6.28,8.73,2.55,11.72,4.85,8.07-.41,6.94-4.06a2.88,2.88,0,0,1,5.28-2.3c1.78,3,1.25,8.49,5.06,9.58s11.6-4.14,15.55-.7,8,2.74,8.42,1.31,4.34-12.5,10.76-10.85,15.21-1.91,19.79,8.73,11,16.82,13,16.27,4.4-3.62,4.85-2.67,3.69.69,5.56,3,1.54-3.26,4.69-2.63,5.76,5.53,4.22,8.13,4.46,10.23,7,9.3,31.65-5.13,38.29,0,13.36,4.94,13.57.7,9.33-6.82,11.63-4.15,8.89-3.91,11.15-.89,5.4,7.19,6.77,5.07,3-4.18,4.54-2.86.42-1.51,1.5,1.32,4.28,4.2,4.08,2,1.34-4.73,2.27-2.91,1.59,4.61,3.53,3,4.4-3.86,5.28-2.72a8.77,8.77,0,0,1,1.26,4.47c.17,1.63,2.66,3.05,3.46,2.83s3.33-2.16,4.33-1.22a2,2,0,0,0,3,.07c.75-.82,3.13-2.41,4.41-.94s2.79,4.24,5,3.63,7-3.05,7.73-.5,3.58.51,3.19-.91-.47-3.37,1.58-3.95,3.54,2.05,4.74,1.1,2.27-4.6,4.17-4.83,5.37-.6,5.8.49,2.58,2.17.72,2.54-1,3.8.23,3.44,3.07-1.32,3.63.66,5.17,2.65,3.35-2.93,3.11-4.69,3.7-3,3.83,3.57,2,5.48-2.5,6.39-.23,5.74,6.43,1.85,5.93,4.43.54,6.43-3.78,7.8-5.35,3.31-4.34,6,3.65,1.81,3.16,4.79,1.3,5,3.53,4.39,5.84-2.85,7.25,2.14,7.58,2.05,6.49-1.83,3.63-3,4.09-1.31,3.93,2.78,2.45,4,1,4.35,1.73,4.15,1.76.1,2.39,2.32,1.66,4.61,3.56,4.07,9-2.69,11.65,1.06,10,9.43,6.94,12.63-.81,11.08.14,11.35,5.46-.28,6.21,1.86,1.91.55.75,2.14.16,5.2,1.37,4.85,3.76.39,5.06,2.91.69,8.66,3.58,8,5.45,2.8,5.42,3.71-2.29,1.19-1.82,2.86S776,519.4,777,520.92s3.59-1.74,4.77,1.9-.86,12.58,3.1,14.88,9.15-2.12,12.19,8.64-4.85,18,4.25,25.48,26.27,8.31,29.59,14.22,4.65,11.22,4.62,13.74,2.83,2.85,3.48,5.17,2.64,6.1-.3,7.38-3.34,7.1-1.1,8.52,5-4.38,7.67-2.17,5,4.53,4.06,5.24-2.6,1.88-1.43,4.74,2.5,1.12,3.9,2.77,4.38,7,1,7.47-4.49,5.6-2.2,6.55,10.58,9.75,11.82,15.36-4,4.75-2.17,9.34,5.35,2.54,4.73,8.24-7.91,1.81-4.74,8.15,7.33,15.24,5.42,20.08,5.83,12.45,6.35,10.87,3.91-3.21,4.32-1.08,7.39,6.38,2.52,8.23-2.77,8-1.34,7.55,2.84-1.53,3.66,1.35-1.92,4.13-.77,5.47,3.28,0,4.41,4,4.72.34,6.1,5.21,4.1,3.62,6.8,4.29,5,4.08,3.22,4.59-1.52,2.81-.86,3.11,3.48,5.47,7,3.74.88-1,1.81-3.14,2.31-2.08,3.35.25,2.1,5.38,4.24,4.78,5.93,1.19,3.86,2.73,1.81,1.4,2,4-2.27-.08-1.34,3.24,4.35,1.17,3.88,5.6-2.12,6.09-5.62,3.26-3.86,1.33-2.39,4.5,4.7-1.09,5.7,2.45,20.17,22.62,16.15,27.28S937.55,827,941.18,831s14.31,11,14.74,5.55,1.17-21.06,4.28-19.51,3.28,6.57,7,6.41,6.85,1.59,6.7,6.7-.31,15.09,4.47,14.18,7.89,0,9.44,5.49,6.11,21.32-1.44,28.88-5.34,12.93-1.41,18.68,21,39,39,36.35,27-18.36,31.71-1.8,4.06,11.91,6.56,10.66,6.64-1.33,7.36,2-3.64,8.09-.51,8.29,6.71,4.35,5.49,4.7-4.09-1.29-3,2.48,3.22,2.08,3.39,5-1,6.29-3,4.53-3.49-.75-3.1.65.23,2.14.94,3,2.41-2.07,3.14.51,2.2,4.48,0,5.09-.8,3.47.49,4.39,5.27-2.88,6.09,0,4,13.73,1.32,12.62-5.94-.13-4.54,1.48,3.5,1.48,3.38,3-3.2,2-2.55,2.93a15.84,15.84,0,0,0,2.67,2.49" transform="translate(-217.95 0.57)" fill="none" stroke="#cfeae6" stroke-miterlimit="10" stroke-width="2"/></g></svg>